<svg height="35pt" viewBox="-11 0 512 512" width="35pt" xmlns="http://www.w3.org/2000/svg"><path d="m315 160h-160c-8.285156 0-15-6.714844-15-15v-60c0-8.285156 6.714844-15 15-15h160c8.285156 0 15 6.714844 15 15v60c0 8.285156-6.714844 15-15 15zm0 0" fill="#cde1e6"/><path d="m315 70h-80v90h80c8.285156 0 15-6.714844 15-15v-60c0-8.285156-6.714844-15-15-15zm0 0" fill="#bfd2d9"/><path d="m335 130h-200c-41.421875 0-75 33.578125-75 75v292c0 8.285156 6.714844 15 15 15h320c8.285156 0 15-6.714844 15-15v-292c0-41.421875-33.578125-75-75-75zm0 0" fill="#e1ebf0"/><path d="m335 130h-100v382h160c8.285156 0 15-6.714844 15-15v-292c0-41.421875-33.578125-75-75-75zm0 0" fill="#cde1e6"/><path d="m395 196h-320c-8.285156 0-15 6.714844-15 15v286c0 8.285156 6.714844 15 15 15h320c8.285156 0 15-6.714844 15-15v-286c0-8.285156-6.714844-15-15-15zm0 0" fill="#00d7df"/><path d="m395 196h-160v316h160c8.285156 0 15-6.714844 15-15v-286c0-8.285156-6.714844-15-15-15zm0 0" fill="#00c7ce"/><path d="m265 306h-15v-15c0-8.285156-6.714844-15-15-15s-15 6.714844-15 15v15h-15c-8.285156 0-15 6.714844-15 15s6.714844 15 15 15h15v15c0 8.285156 6.714844 15 15 15s15-6.714844 15-15v-15h15c8.285156 0 15-6.714844 15-15s-6.714844-15-15-15zm0 0" fill="#fc0023"/><path d="m250 351v-15h15c8.285156 0 15-6.714844 15-15s-6.714844-15-15-15h-15v-15c0-8.285156-6.714844-15-15-15v90c8.285156 0 15-6.714844 15-15zm0 0" fill="#c9001c"/><path d="m335 100h-200c-8.285156 0-15-6.714844-15-15v-70c0-8.285156 6.714844-15 15-15h200c8.285156 0 15 6.714844 15 15v70c0 8.285156-6.714844 15-15 15zm0 0" fill="#00d7df"/><path d="m395 512c-52.382812 0-95-42.617188-95-95s42.617188-95 95-95 95 42.617188 95 95-42.617188 95-95 95zm0 0" fill="#ff6379"/><path d="m327.855469 484.144531c17.203125 17.203125 40.953125 27.855469 67.144531 27.855469 52.382812 0 95-42.617188 95-95 0-26.191406-10.652344-49.941406-27.855469-67.144531zm0 0" fill="#ff415b"/><path d="m75 512c-41.355469 0-75-33.644531-75-75v-120c0-41.355469 33.644531-75 75-75s75 33.644531 75 75v120c0 41.355469-33.644531 75-75 75zm0 0" fill="#e1ebf0"/><path d="m75 242v270c41.355469 0 75-33.644531 75-75v-120c0-41.355469-33.644531-75-75-75zm0 0" fill="#cde1e6"/><path d="m75 512c-41.355469 0-75-33.644531-75-75v-60c0-8.285156 6.714844-15 15-15h120c8.285156 0 15 6.714844 15 15v60c0 41.355469-33.644531 75-75 75zm0 0" fill="#fc0023"/><path d="m135 362h-60v150c41.355469 0 75-33.644531 75-75v-60c0-8.285156-6.714844-15-15-15zm0 0" fill="#c9001c"/><path d="m335 0h-100v100h100c8.285156 0 15-6.714844 15-15v-70c0-8.285156-6.714844-15-15-15zm0 0" fill="#00c7ce"/><path d="m350 100h-230c-8.285156 0-15-6.714844-15-15s6.714844-15 15-15h230c8.285156 0 15 6.714844 15 15s-6.714844 15-15 15zm0 0" fill="#fc0023"/><path d="m350 70h-115v30h115c8.285156 0 15-6.714844 15-15s-6.714844-15-15-15zm0 0" fill="#c9001c"/></svg>
